<?xml version="1.0" ?><svg data-name="Layer 1" id="Layer_1" viewBox="0 0 100 100" xmlns="http://www.w3.org/2000/svg"><title/><path d="M59.38,62.69a.49.49,0,0,1-.44-.26.49.49,0,0,1,.2-.67A14.31,14.31,0,0,0,65,55.44l0-.07a4.54,4.54,0,0,0,.21-.45l0-.06A20.83,20.83,0,0,0,66.58,51a.49.49,0,0,1,.6-.37.5.5,0,0,1,.37.6,20.78,20.78,0,0,1-1.35,4s0,0,0,.06-.15.33-.23.49a.14.14,0,0,1,0,.06,15.3,15.3,0,0,1-6.31,6.8A.53.53,0,0,1,59.38,62.69Z"/><path d="M67.63,42.15a.5.5,0,0,1-.5-.45,43.52,43.52,0,0,0-5.4-17c-4-7.31-9.69-13.16-15.91-16.46S33.69,4.64,29,7.23a.51.51,0,0,1-.68-.2.5.5,0,0,1,.19-.68c5-2.76,11.3-2.39,17.76,1s12.2,9.37,16.33,16.86a44.34,44.34,0,0,1,5.52,17.36.5.5,0,0,1-.45.54Z"/><path d="M38.76,72.73c-9.64,0-20.88-7.84-27.85-20.45C2,36.18,3.41,18.3,14,12.44S40.49,14.92,49.39,31h0c8.9,16.11,7.51,34-3.1,39.84A15.46,15.46,0,0,1,38.76,72.73ZM21.58,11.55a14.42,14.42,0,0,0-7.08,1.77C4.37,18.91,3.16,36.17,11.79,51.8S35.68,75.58,45.8,70,57.15,47.13,48.52,31.5C41.73,19.22,30.85,11.55,21.58,11.55Z"/><path d="M34.2,32.16a.49.49,0,0,1-.38-.18,31.14,31.14,0,0,0-4-4,.49.49,0,0,1-.06-.7.51.51,0,0,1,.71-.06,33,33,0,0,1,4.11,4.16.5.5,0,0,1-.07.7A.49.49,0,0,1,34.2,32.16Z"/><path d="M42.14,50.83a.5.5,0,0,1-.49-.46,33.22,33.22,0,0,0-4.11-12.91.5.5,0,0,1,.88-.48,34.08,34.08,0,0,1,4.22,13.3.5.5,0,0,1-.45.55Z"/><path d="M32.46,66.81a17.28,17.28,0,0,1-8-2.2,31.9,31.9,0,0,1-12.5-12.9A32,32,0,0,1,7.67,34.27c.42-5.6,2.76-9.86,6.6-12s8.69-1.84,13.65.79A32.09,32.09,0,0,1,40.42,36h0a32,32,0,0,1,4.26,17.44c-.41,5.6-2.75,9.86-6.59,12A11.56,11.56,0,0,1,32.46,66.81ZM19.9,21.89a10.45,10.45,0,0,0-5.14,1.28c-3.54,1.95-5.7,5.92-6.09,11.17a31,31,0,0,0,4.15,16.89A31,31,0,0,0,24.9,63.72c4.66,2.47,9.17,2.76,12.7.8s5.7-5.92,6.09-11.17a31.07,31.07,0,0,0-4.15-16.89h0A31,31,0,0,0,27.45,24,16.17,16.17,0,0,0,19.9,21.89Z"/><path d="M34.07,68a18.61,18.61,0,0,1-8.65-2.37A34.51,34.51,0,0,1,11.94,51.71c-7.08-12.82-6-27,2.5-31.73,4.14-2.28,9.36-2,14.71.86A34.54,34.54,0,0,1,42.63,34.75c7.09,12.82,6,27.06-2.5,31.73A12.42,12.42,0,0,1,34.07,68ZM20.51,19.47a11.38,11.38,0,0,0-5.58,1.39c-8,4.41-8.93,18-2.11,30.37A33.44,33.44,0,0,0,25.89,64.74c5,2.68,9.93,3,13.76.87,8-4.41,8.92-18,2.11-30.37A33.55,33.55,0,0,0,28.68,21.72,17.55,17.55,0,0,0,20.51,19.47Z"/><path d="M52,80.24a6.3,6.3,0,0,1-2.71-.61L33.5,72a.5.5,0,0,1,.44-.9l15.82,7.61A5.32,5.32,0,0,0,55,78.35l3.33-2.25a.5.5,0,0,1,.69.14.49.49,0,0,1-.13.69l-3.33,2.25A6.28,6.28,0,0,1,52,80.24Z"/><path d="M65.69,69.62a.51.51,0,0,1-.5-.49L65,55.62a.5.5,0,0,1,.47-.51.51.51,0,0,1,.53.45h0l.21,13.54a.49.49,0,0,1-.49.51Z"/><path d="M24.56,67.66a.54.54,0,0,1-.21,0l-9.86-4.74a9.37,9.37,0,0,1-5.22-7L7.5,44.67a.5.5,0,0,1,.42-.57.5.5,0,0,1,.57.42l1.76,11.17A8.41,8.41,0,0,0,14.92,62l9.86,4.74a.5.5,0,0,1-.22,1Z"/><path d="M46.05,70.92a.5.5,0,0,1-.27-.92l13.34-8.23a.5.5,0,0,1,.52.85L46.31,70.85A.48.48,0,0,1,46.05,70.92Z"/><path d="M14.26,13.38a.48.48,0,0,1-.46-.31.5.5,0,0,1,.26-.65L28.57,6.33a.5.5,0,1,1,.39.92L14.45,13.34A.43.43,0,0,1,14.26,13.38Z"/><path d="M51.32,78.1a.5.5,0,0,1-.5-.46l-.67-10a.5.5,0,0,1,.46-.53.51.51,0,0,1,.54.47l.67,10a.5.5,0,0,1-.46.53Z"/><path d="M66.29,52.75a.5.5,0,0,1-.33-.12.51.51,0,1,1,.83-.43v0a.53.53,0,0,1-.13.36A.5.5,0,0,1,66.29,52.75Z"/><path d="M65.44,56.63a.32.32,0,0,1-.14,0A.49.49,0,0,1,65,56c.09-.33.19-.68.28-1h0a.46.46,0,0,1,.12-.23.49.49,0,0,1,.7,0,.52.52,0,0,1,.14.56c-.09.34-.18.69-.28,1A.51.51,0,0,1,65.44,56.63Zm.29-1.57Z"/><path d="M64.56,34.59a.5.5,0,0,1-.48-.34A46.94,46.94,0,0,0,58,22a.5.5,0,1,1,.83-.57A48.11,48.11,0,0,1,65,33.94a.5.5,0,0,1-.32.63Z"/><path d="M48.38,27.24a.5.5,0,0,1-.22-.94l11.58-5.86a.49.49,0,0,1,.67.22.49.49,0,0,1-.22.67L48.61,27.19A.46.46,0,0,1,48.38,27.24Z"/><path d="M55.44,61.71a.49.49,0,0,1-.42-.23.5.5,0,0,1,.15-.69l1.08-.68.39-1.46a6.1,6.1,0,0,1,2.47-3.45l.55-7.08a8.69,8.69,0,0,1-3-5.34l-.54-3.5-1.18.64a.5.5,0,0,1-.48-.88l1.81-1a.5.5,0,0,1,.46,0,.47.47,0,0,1,.27.37l.65,4.19a7.67,7.67,0,0,0,2.88,4.88.5.5,0,0,1,.19.43l-.59,7.6a.47.47,0,0,1-.24.38,5.1,5.1,0,0,0-2.24,3l-.45,1.65a.51.51,0,0,1-.21.29l-1.24.78A.45.45,0,0,1,55.44,61.71Z"/><path d="M55.44,61.71a.54.54,0,0,1-.3-.1.49.49,0,0,1-.18-.54c1.6-5.42,1.87-13.1-.74-21.4l0,0a.76.76,0,0,1-.06-.2A47.1,47.1,0,0,0,48,27a.5.5,0,0,1,.13-.7.49.49,0,0,1,.69.13,47.85,47.85,0,0,1,6.15,12.22l10-5.4a.5.5,0,0,1,.46,0,.51.51,0,0,1,.28.37l.62,4a7.33,7.33,0,0,0,2.77,4.7.48.48,0,0,1,.19.43l-.57,7.34a.5.5,0,0,1-.24.39,4.88,4.88,0,0,0-2.15,2.88L65.91,55a.51.51,0,0,1-.21.29l-10,6.31A.5.5,0,0,1,55.44,61.71Zm-.19-22.06a39.17,39.17,0,0,1,1,20.45L65,54.58l.38-1.41a5.84,5.84,0,0,1,2.38-3.33L68.3,43a8.33,8.33,0,0,1-2.94-5.16l-.52-3.35Z"/><path d="M60.18,48.39a.5.5,0,0,1-.26-.93l8.64-5.11a.51.51,0,0,1,.69.18.5.5,0,0,1-.18.68l-8.64,5.11A.45.45,0,0,1,60.18,48.39Z"/><path d="M59.59,56a.5.5,0,0,1-.26-.93L68,49.7a.48.48,0,0,1,.68.16.49.49,0,0,1-.16.69l-8.65,5.36A.5.5,0,0,1,59.59,56Z"/><path d="M57.31,38.48a.49.49,0,0,1-.47-.35,47,47,0,0,0-6.19-12.5.5.5,0,0,1,.13-.7.49.49,0,0,1,.69.13,48.28,48.28,0,0,1,6.32,12.77.49.49,0,0,1-.33.62Z"/><path d="M61.34,36.22a.49.49,0,0,1-.47-.34,46.85,46.85,0,0,0-6.06-12.31.52.52,0,0,1,.13-.7.5.5,0,0,1,.7.13,48,48,0,0,1,6.18,12.57.5.5,0,0,1-.32.63A.44.44,0,0,1,61.34,36.22Z"/><path d="M59.89,37a.49.49,0,0,1-.47-.35,47.82,47.82,0,0,0-6.08-12.33.49.49,0,0,1,.13-.69.5.5,0,0,1,.69.12,48.62,48.62,0,0,1,6.21,12.6A.51.51,0,0,1,60,37Z"/><path d="M53.47,77.61a.59.59,0,0,1-.22,0,.49.49,0,0,1-.27-.42l-.36-5a.53.53,0,0,1,.23-.46l7.52-4.78.06,0,2.75-1.74a.5.5,0,0,1,.5,0,.51.51,0,0,1,.27.41l.19,2.68a.5.5,0,0,1-1,.07L63,66.42l-2.1,1.33-.06,0-7.21,4.6.27,3.83,1.71-1.14a.5.5,0,0,1,.7.13.51.51,0,0,1-.14.7l-2.43,1.62A.47.47,0,0,1,53.47,77.61Z"/><path d="M85.06,89.85a.54.54,0,0,1-.22,0L53,74.08a.5.5,0,1,1,.44-.89L84.86,88.7l.48-.8a.49.49,0,0,1,.68-.18.51.51,0,0,1,.18.69l-.71,1.2A.52.52,0,0,1,85.06,89.85Z"/><path d="M92.14,82.12a.54.54,0,0,1-.21-.05l-31-14.58a.5.5,0,0,1-.24-.67.5.5,0,0,1,.66-.24l2.53,1.19,28.51,13.4a.5.5,0,0,1,.24.66A.52.52,0,0,1,92.14,82.12Z"/><path d="M90.62,83.08a.52.52,0,0,1-.43-.24.5.5,0,0,1,.16-.69l1.53-1a.5.5,0,1,1,.53.85l-1.53,1A.5.5,0,0,1,90.62,83.08Z"/><path d="M87.42,86a3,3,0,0,1-1.37-.35c-1.21-.62-1.79-1.82-1.32-2.72A1.65,1.65,0,0,1,86,82.08a2.9,2.9,0,0,1,1.67.33A3,3,0,0,1,89,83.58,1.65,1.65,0,0,1,89,85.13,1.71,1.71,0,0,1,87.42,86Zm-1.08-2.93h-.18a.7.7,0,0,0-.54.31c-.18.34.14,1,.88,1.37s1.46.27,1.64-.08a.7.7,0,0,0-.07-.61,2,2,0,0,0-.82-.76A2.1,2.1,0,0,0,86.34,83.06Z"/><path d="M82.33,83.72A2.84,2.84,0,0,1,81,83.38c-1.15-.59-1.71-1.73-1.26-2.6a2.08,2.08,0,0,1,2.86-.5c1.15.6,1.7,1.74,1.25,2.61h0A1.65,1.65,0,0,1,82.33,83.72Zm-1-2.77a.73.73,0,0,0-.66.28c-.16.32.14.91.83,1.27s1.34.25,1.51-.06-.14-.91-.83-1.27A2,2,0,0,0,81.31,81Zm2.12,1.72h0Z"/><path d="M87.48,95.5a1.06,1.06,0,0,1-.42-.09,1,1,0,0,1-.6-.89l-.18-4.89a.93.93,0,0,0-.09-.42,4.5,4.5,0,0,0-2.08-2.12l-4.94-2.45a3.38,3.38,0,0,1-.86-5.43,3.38,3.38,0,0,1,3.6-.73c1.25.5,2,.82,2.9,1.2.57.24,1.18.5,2,.83L92,82.71A3.58,3.58,0,0,1,94.22,86l0,3.67a1,1,0,0,1-.36.79l-5.77,4.82A1,1,0,0,1,87.48,95.5ZM80.67,79.25a2.37,2.37,0,0,0-1.66.67A2.32,2.32,0,0,0,78.33,82a2.35,2.35,0,0,0,1.28,1.75l4.94,2.45a5.57,5.57,0,0,1,2.55,2.59,2.14,2.14,0,0,1,.18.82l.18,4.88,5.79-4.81,0-3.68h0a2.58,2.58,0,0,0-1.59-2.36l-5.21-2.19-2-.84c-.88-.38-1.63-.7-2.88-1.19A2.39,2.39,0,0,0,80.67,79.25Z"/></svg>