<?xml version="1.0" ?><svg data-name="Layer 1" id="Layer_1" viewBox="0 0 100 100" xmlns="http://www.w3.org/2000/svg"><title/><path d="M83.1,23.28h-.24a48.82,48.82,0,0,1-12-2.5,2.62,2.62,0,0,1-1.61-3.36l.53-1.48A2.63,2.63,0,0,1,73,14.31l3.51,1c1.23.34,2.49.64,3.74.89l3.44.67a2.93,2.93,0,0,1,2.37,3l0,.58a2.93,2.93,0,0,1-1,2.08A2.9,2.9,0,0,1,83.1,23.28ZM72.29,15.21a1.62,1.62,0,0,0-1.52,1.06l-.53,1.48a1.61,1.61,0,0,0,1,2.07,47.79,47.79,0,0,0,11.71,2.45,2,2,0,0,0,1.44-.48A1.92,1.92,0,0,0,85,20.41l0-.57a1.92,1.92,0,0,0-1.57-2l-3.43-.68c-1.28-.25-2.57-.56-3.82-.91l-3.51-1h0A1.67,1.67,0,0,0,72.29,15.21Z"/><path d="M62.59,31.73a3,3,0,0,1-1.31-.3l-5-2.35a1.77,1.77,0,0,1-.62-2.7L72.39,5.46a2.31,2.31,0,0,1,4.09,1.07,1,1,0,0,0,1,.84h.16a20.88,20.88,0,0,1,13.49,4.94l2.51,2.12a2.43,2.43,0,0,1,.52,3.12l-6.7,11.18a1.26,1.26,0,0,1-1.64.48,6.94,6.94,0,0,1-1.3-.8c-.26,0-1.26.29-4.8,2.08a11.44,11.44,0,0,1-7.92.9,15.43,15.43,0,0,0-8.31.21A3,3,0,0,1,62.59,31.73ZM74.18,5.59a1.28,1.28,0,0,0-1,.49h0L56.49,27a.78.78,0,0,0-.14.66.75.75,0,0,0,.41.52l5,2.35a2.07,2.07,0,0,0,1.49.11A16.49,16.49,0,0,1,72,30.42a10.47,10.47,0,0,0,7.23-.82c5.18-2.63,5.52-2.3,5.83-2a5.48,5.48,0,0,0,1.17.73.27.27,0,0,0,.33-.1L93.3,17A1.43,1.43,0,0,0,93,15.2l-2.51-2.12a19.79,19.79,0,0,0-13-4.71h0a2,2,0,0,1-2-1.68,1.29,1.29,0,0,0-1-1.06A1.39,1.39,0,0,0,74.18,5.59Zm-1.4.18h0Z"/><path d="M11.77,95.5a.52.52,0,0,1-.33-.12L6.71,91.26A3.05,3.05,0,0,1,6.4,87L56.17,28.31a.5.5,0,0,1,.76.64L7.16,87.61a2.07,2.07,0,0,0,.21,2.9l4.41,3.83L30.52,78.51l.06-.06L87.45,30.4l-.87-1.7a.51.51,0,0,1,.9-.46l1,2.06a.51.51,0,0,1-.13.61L31.28,79.16l-.06.06L12.09,95.38A.49.49,0,0,1,11.77,95.5Z"/><path d="M11.57,88.78a1.52,1.52,0,0,1-.75-.19,1.61,1.61,0,0,1-.79-1,1.56,1.56,0,0,1,.12-1.23,1.61,1.61,0,0,1,3,.29h0a1.61,1.61,0,0,1-1.07,2A1.59,1.59,0,0,1,11.57,88.78Zm0-2.24a.57.57,0,0,0-.18,0,.65.65,0,0,0-.37.3.59.59,0,0,0,0,.47.58.58,0,0,0,.3.37.59.59,0,0,0,.47,0,.62.62,0,0,0,.41-.77h0a.65.65,0,0,0-.59-.44Z"/><path d="M29.92,65.05a.51.51,0,0,1-.32-.12.49.49,0,0,1-.06-.7l4.37-5.18a.5.5,0,0,1,.76.64l-4.36,5.18A.5.5,0,0,1,29.92,65.05Z"/><path d="M36.23,57.38a.47.47,0,0,1-.32-.12.49.49,0,0,1-.06-.7l20-23.73a.52.52,0,0,1,.71-.06.51.51,0,0,1,.06.71l-20,23.72A.49.49,0,0,1,36.23,57.38Z"/><path d="M84.48,37.38a.51.51,0,0,1-.17,0l-1.84-.66-.94-.26a.49.49,0,0,1-.35-.61.5.5,0,0,1,.61-.35l1,.27,1.07.38L83.65,35l-.12-1a.5.5,0,0,1,.45-.55.51.51,0,0,1,.55.45l.11,1L85,36.79a.49.49,0,0,1-.17.47A.47.47,0,0,1,84.48,37.38Z"/><path d="M80.94,40.37a.51.51,0,0,1-.17,0l-1.84-.66L78,39.42a.5.5,0,1,1,.26-1l1,.27,1.06.38L80.1,38,80,37a.51.51,0,0,1,.45-.55.51.51,0,0,1,.55.45l.1,1,.34,1.88a.49.49,0,0,1-.17.47A.47.47,0,0,1,80.94,40.37Z"/><path d="M77.4,43.37a.51.51,0,0,1-.17,0l-1.84-.66-.94-.26a.5.5,0,0,1,.26-1l1,.27,1.06.38L76.56,41,76.45,40a.5.5,0,0,1,1-.1l.1,1,.34,1.88a.49.49,0,0,1-.17.47A.47.47,0,0,1,77.4,43.37Z"/><path d="M73.86,46.37a.51.51,0,0,1-.17,0l-1.84-.66-.95-.26a.5.5,0,0,1,.26-1l1,.27,1.06.38L73,44,72.91,43a.5.5,0,1,1,1-.1l.1,1,.34,1.89a.49.49,0,0,1-.17.47A.47.47,0,0,1,73.86,46.37Z"/><path d="M70.32,49.36a.51.51,0,0,1-.17,0l-1.84-.66-1-.26A.5.5,0,0,1,67,48a.51.51,0,0,1,.17-.49l2.38-2a.49.49,0,0,1,.51-.08.48.48,0,0,1,.31.41l.11,1,.34,1.88a.49.49,0,0,1-.17.47A.47.47,0,0,1,70.32,49.36ZM68.53,47.7l.08,0,1.06.38-.21-1.19Z"/><path d="M66.77,52.36a.51.51,0,0,1-.17,0l-1.84-.66-1-.26a.5.5,0,1,1,.26-1l1,.27,1.07.38L65.94,50,65.82,49a.5.5,0,0,1,.45-.55.5.5,0,0,1,.55.45l.11,1,.33,1.88a.49.49,0,0,1-.17.47A.47.47,0,0,1,66.77,52.36Z"/><path d="M63.23,55.35a.51.51,0,0,1-.17,0l-1.84-.66-1-.26a.5.5,0,1,1,.26-1l1,.27,1.06.38L62.39,53,62.28,52a.5.5,0,1,1,1-.1l.1,1,.34,1.88a.49.49,0,0,1-.17.47A.47.47,0,0,1,63.23,55.35Z"/><path d="M59.69,58.35a.51.51,0,0,1-.17,0l-1.84-.66-1-.27a.49.49,0,0,1-.35-.61.5.5,0,0,1,.61-.35l1,.28,1.06.38L58.85,56,58.74,55a.5.5,0,1,1,1-.1l.1,1,.34,1.88a.49.49,0,0,1-.17.47A.47.47,0,0,1,59.69,58.35Z"/><path d="M56.15,61.35a.51.51,0,0,1-.17,0l-1.84-.66-1-.27a.5.5,0,1,1,.26-1l1,.28,1.06.38L55.31,59l-.11-1.07a.5.5,0,1,1,1-.1l.1,1,.34,1.89a.49.49,0,0,1-.17.47A.47.47,0,0,1,56.15,61.35Z"/><path d="M52.61,64.34a.51.51,0,0,1-.17,0l-1.84-.66-1-.26a.5.5,0,1,1,.26-1l1,.27,1.06.38L51.77,62l-.11-1.08a.51.51,0,0,1,.45-.55.5.5,0,0,1,.55.45l.1,1,.34,1.88a.49.49,0,0,1-.17.47A.47.47,0,0,1,52.61,64.34Z"/><path d="M49.07,67.34a.51.51,0,0,1-.17,0l-1.84-.66-1-.27a.49.49,0,0,1-.35-.61.5.5,0,0,1,.61-.35l1,.28,1.06.38L48.23,65l-.12-1.08a.5.5,0,1,1,1-.1l.11,1,.34,1.88a.49.49,0,0,1-.17.47A.47.47,0,0,1,49.07,67.34Z"/><path d="M45.52,70.34a.47.47,0,0,1-.17,0l-1.84-.67-1-.26a.5.5,0,1,1,.26-1l1,.27,1.07.38L44.69,68l-.12-1.08a.5.5,0,0,1,1-.1l.11,1L46,69.75a.49.49,0,0,1-.17.47A.47.47,0,0,1,45.52,70.34Z"/><path d="M42,73.33a.51.51,0,0,1-.17,0L40,72.64l-1-.27a.49.49,0,0,1-.35-.61.5.5,0,0,1,.61-.35l1,.28,1.06.38L41.14,71,41,69.91a.51.51,0,0,1,.45-.55.5.5,0,0,1,.55.45l.1,1,.34,1.88a.49.49,0,0,1-.17.47A.47.47,0,0,1,42,73.33Z"/><path d="M38.44,76.33a.51.51,0,0,1-.17,0l-1.84-.66-1-.27a.5.5,0,1,1,.26-1l1,.28,1.06.38L37.6,74l-.11-1.1a.5.5,0,1,1,1-.1l.1,1.06.34,1.88a.49.49,0,0,1-.17.47A.47.47,0,0,1,38.44,76.33Z"/><path d="M34.9,79.32a.51.51,0,0,1-.17,0l-1.84-.66-1-.27a.48.48,0,0,1-.35-.61.5.5,0,0,1,.61-.35l1,.28,1.06.38L34.06,77,34,75.89a.5.5,0,1,1,1-.1l.1,1.06.34,1.88a.49.49,0,0,1-.17.47A.47.47,0,0,1,34.9,79.32Z"/><path d="M31.36,82.32a.51.51,0,0,1-.17,0l-1.84-.66-1-.27a.5.5,0,0,1,.26-1l1,.28,1.06.38L30.52,80l-.12-1.11a.5.5,0,0,1,.45-.55.51.51,0,0,1,.55.45l.11,1.07.34,1.88a.49.49,0,0,1-.17.47A.47.47,0,0,1,31.36,82.32Z"/><path d="M27.82,85.32a.51.51,0,0,1-.17,0l-1.84-.66-1-.28a.5.5,0,0,1,.26-1l1,.29,1.06.38L27,83l-.12-1.1a.5.5,0,0,1,1-.1L28,82.84l.34,1.89a.49.49,0,0,1-.17.47A.47.47,0,0,1,27.82,85.32Z"/><path d="M24.27,88.31a.51.51,0,0,1-.17,0l-1.84-.66-1-.27a.5.5,0,1,1,.26-1l1,.28,1.07.38L23.44,86l-.12-1.11a.5.5,0,0,1,.45-.55.51.51,0,0,1,.55.45l.11,1.07.33,1.88a.49.49,0,0,1-.17.47A.47.47,0,0,1,24.27,88.31Z"/><path d="M20.73,91.31a.51.51,0,0,1-.17,0l-1.84-.66-1-.28a.5.5,0,0,1,.26-1l1,.29,1.06.38L19.89,89l-.12-1.11a.5.5,0,1,1,1-.1l.11,1.07.34,1.88a.49.49,0,0,1-.17.47A.47.47,0,0,1,20.73,91.31Z"/><path d="M17.19,94.31a.47.47,0,0,1-.17,0l-1.84-.67-1-.27a.5.5,0,0,1,.26-1l1,.28,1.06.38L16.35,92l-.12-1.11a.5.5,0,0,1,1-.1l.11,1.07.34,1.89a.49.49,0,0,1-.17.47A.47.47,0,0,1,17.19,94.31Z"/><path d="M84.76,28.45a.57.57,0,0,1-.18,0,.5.5,0,0,1-.29-.64l2.9-7.71a3.2,3.2,0,0,0-.52-2.51,5.22,5.22,0,0,0-3.44-2.23L80.94,15a30.06,30.06,0,0,1-4.27-1l-2.43-.76a4,4,0,0,0-4.81,2.27l-.86,2.13a3,3,0,0,0,2.09,4l.7.16a2.54,2.54,0,0,1,1.85,3.27,3.46,3.46,0,0,1-3.52,2.25l-12.55-1.4a.5.5,0,0,1-.44-.55.5.5,0,0,1,.55-.44l12.55,1.4a2.45,2.45,0,0,0,2.46-1.58,1.56,1.56,0,0,0-.12-1.23,1.54,1.54,0,0,0-1-.74l-.7-.16a4,4,0,0,1-2.8-5.37l.86-2.12a5,5,0,0,1,6-2.85L77,13a29.11,29.11,0,0,0,4.13,1l2.29.35A6.22,6.22,0,0,1,87.51,17a4.19,4.19,0,0,1,.63,3.37l-2.91,7.75A.51.51,0,0,1,84.76,28.45Z"/></svg>