<?xml version="1.0" ?><svg data-name="Layer 1" id="Layer_1" viewBox="0 0 100 100" xmlns="http://www.w3.org/2000/svg"><title/><path d="M8.05,30.25a.51.51,0,0,1-.32-.12L4.68,27.56a.49.49,0,0,1-.18-.38,24.1,24.1,0,0,1,5.84-15.8l1-1.19A10.26,10.26,0,0,1,25.61,9l7.25,5.22a.5.5,0,1,1-.59.81L25,9.79a9.27,9.27,0,0,0-12.88,1.05L11.1,12A23.1,23.1,0,0,0,5.5,27L8,29.07l9.64-9.62a4.14,4.14,0,0,1,5.64-.18l1.15.78a.51.51,0,0,1,.13.69.51.51,0,0,1-.7.14l-1.19-.82a3.15,3.15,0,0,0-4.32.1l-10,9.94A.51.51,0,0,1,8.05,30.25Z"/><path d="M90.09,95.81a5.32,5.32,0,0,1-3.63-1.42l-.1-.09C81.77,90.1,77,86,72.15,82L13,34.28a2.11,2.11,0,0,1-.46-2.71l6.13-10a1.76,1.76,0,0,1,1.1-.78,1.72,1.72,0,0,1,1.32.25l.75.46,10.4-7.24A8.57,8.57,0,0,1,44.74,25.26a.5.5,0,0,1-.68.21.51.51,0,0,1-.2-.68,7.57,7.57,0,0,0-7.16-11.1A7.62,7.62,0,0,0,32.85,15L22.19,22.46a.5.5,0,0,1-.55,0l-1.05-.64a.74.74,0,0,0-.57-.11.71.71,0,0,0-.45.32L13.44,32.1a1.07,1.07,0,0,0,.23,1.4L72.78,81.27c4.86,3.94,9.65,8.07,14.25,12.29l.11.1a4.39,4.39,0,1,0,5.45-6.86A141.44,141.44,0,0,1,77.84,75.14L55.1,54.44a24.51,24.51,0,0,1-6.44-9.5L46.49,39.1a.43.43,0,0,0-.34-.28.44.44,0,0,0-.42.14l-2.08,2.28a2.24,2.24,0,0,1-1.56.74,2.28,2.28,0,0,1-1.63-.58l-4.67-4.2A2.28,2.28,0,0,1,35,35.56a2.33,2.33,0,0,1,.63-1.7.5.5,0,0,1,.71,0,.49.49,0,0,1,0,.7,1.38,1.38,0,0,0-.37,1,1.41,1.41,0,0,0,.44.94l4.68,4.19a1.26,1.26,0,0,0,1.78-.08L45,38.28a1.48,1.48,0,0,1,1.35-.45,1.46,1.46,0,0,1,1.09.92l2.17,5.84a23.37,23.37,0,0,0,6.18,9.11L78.51,74.4A140.47,140.47,0,0,0,93.16,86a5.39,5.39,0,0,1-2.65,9.82A3,3,0,0,1,90.09,95.81Z"/><path d="M14.54,35.39a.55.55,0,0,1-.25-.07.49.49,0,0,1-.18-.68l7.36-12.85a.49.49,0,0,1,.68-.18.51.51,0,0,1,.19.68L15,35.13A.49.49,0,0,1,14.54,35.39Z"/><path d="M5,27.68a.49.49,0,0,1-.35-.14.5.5,0,0,1,0-.71L16.41,14.69a2.7,2.7,0,0,1,1.91-.82,2.66,2.66,0,0,1,1.93.77,2.72,2.72,0,0,1-.11,4l-1.79,1.58a.49.49,0,0,1-.7-.05.48.48,0,0,1,0-.7l1.79-1.58a1.68,1.68,0,0,0,.57-1.23,1.7,1.7,0,0,0-2.92-1.23L5.36,27.53A.51.51,0,0,1,5,27.68Z"/><path d="M45.36,39.12A.5.5,0,0,1,45,39a.51.51,0,0,1,0-.71L50.73,32A1.45,1.45,0,0,0,51.12,31a1.51,1.51,0,0,0-.5-1l-1.45-1.27a.5.5,0,0,1,.67-.75l1.44,1.27a2.42,2.42,0,0,1,.83,1.71,2.47,2.47,0,0,1-.64,1.81L45.73,39A.49.49,0,0,1,45.36,39.12Z"/><path d="M36,34.7a.52.52,0,0,1-.33-.12.51.51,0,0,1,0-.71l7.41-8.6a2.49,2.49,0,0,1,3.5-.23l1.58,1.38a.51.51,0,0,1,0,.71.5.5,0,0,1-.71,0l-1.58-1.38a1.44,1.44,0,0,0-1.43-.29,1.49,1.49,0,0,0-.65.43l-7.41,8.6A.52.52,0,0,1,36,34.7Z"/><path d="M65.11,58.14a4.34,4.34,0,0,1-3-1.16L48.35,44a.49.49,0,0,1,0-.7.5.5,0,0,1,.71,0l13.79,13a3.31,3.31,0,0,0,4.54-4.82l-18-17.18a.5.5,0,1,1,.69-.72l18,17.17a4.3,4.3,0,0,1-2.68,7.43Z"/><path d="M65.11,58.14a4.34,4.34,0,0,1-3-1.16L48.35,44a.49.49,0,0,1,0-.7.5.5,0,0,1,.71,0l13.79,13a3.31,3.31,0,0,0,4.54-4.82l-18-17.18a.5.5,0,1,1,.69-.72l18,17.17a4.3,4.3,0,0,1-2.68,7.43Z"/><path d="M45,39.52a.49.49,0,0,1-.5-.49h0a.5.5,0,0,1,.5-.5.5.5,0,0,1,.5.5A.5.5,0,0,1,45,39.52Z"/><path d="M42.48,54.74a.45.45,0,0,1-.31-.11l-4.3-3.51a.5.5,0,0,1-.07-.7.5.5,0,0,1,.71-.07l4.29,3.51a.5.5,0,0,1,.07.7A.5.5,0,0,1,42.48,54.74Z"/><path d="M89.71,92.51A2.42,2.42,0,0,1,88.17,92L43.72,55.85a.5.5,0,1,1,.63-.77L88.8,91.18A1.45,1.45,0,0,0,90.68,89L73.22,73.68a.5.5,0,1,1,.66-.76l17.45,15.3a2.44,2.44,0,0,1-1.62,4.29Z"/><path d="M81.94,86.72h-.13a.52.52,0,0,1-.36-.61l0-.18a5,5,0,0,1,3-3.36.49.49,0,0,1,.65.28.5.5,0,0,1-.28.65,3.94,3.94,0,0,0-2.36,2.68l0,.18A.5.5,0,0,1,81.94,86.72Z"/><path d="M64.38,55.65A2.56,2.56,0,0,1,62.65,55L47,40.31a.5.5,0,1,1,.69-.73L63.34,54.24a1.52,1.52,0,0,0,2.13-.05,1.52,1.52,0,0,0,0-2.16L48.18,35.53a.5.5,0,0,1,0-.71.49.49,0,0,1,.7,0L66.12,51.3a2.5,2.5,0,0,1,.78,1.78,2.46,2.46,0,0,1-.71,1.8A2.51,2.51,0,0,1,64.38,55.65Z"/><path d="M47.7,29.73h-.09a1.28,1.28,0,0,1-.9-.4,1.19,1.19,0,0,1-.31-.91,3.06,3.06,0,0,1,1.06-2,.5.5,0,0,1,.71,0,.48.48,0,0,1,0,.7,2.15,2.15,0,0,0-.74,1.29.29.29,0,0,0,0,.2.37.37,0,0,0,.22.08A2.15,2.15,0,0,0,49,28.07a.47.47,0,0,0,.1-.1.51.51,0,0,1,.71,0,.51.51,0,0,1,0,.71,1.49,1.49,0,0,1-.17.18A3.19,3.19,0,0,1,47.7,29.73Z"/><path d="M39.44,40.31a.46.46,0,0,1-.36-.16.49.49,0,0,1,0-.7c.71-.66.82-1.34.68-1.5s-.86-.06-1.58.59l-.08.08a.49.49,0,0,1-.7.05.51.51,0,0,1-.05-.71l.38.33L37.38,38l.16-.16c1.07-1,2.36-1.19,3-.51s.3,1.94-.74,2.9A.48.48,0,0,1,39.44,40.31Z"/><path d="M21.65,35.89a2.4,2.4,0,1,1,.16,0Zm0-4.19h-.1a1.59,1.59,0,0,0,.2,3.18,1.6,1.6,0,0,0-.1-3.19Z"/><path d="M21.78,35.89a.51.51,0,0,1-.5-.47L21,31.24a.5.5,0,0,1,1-.06l.26,4.18a.5.5,0,0,1-.47.53Z"/><path d="M51.1,35.75H51a.51.51,0,0,1-.41-.58l0-.16-.16,0a.5.5,0,0,1-.22-1l.9-.24a.5.5,0,0,1,.63.59l-.19.91A.5.5,0,0,1,51.1,35.75Z"/><path d="M52.2,36.79h-.08a.51.51,0,0,1-.42-.58l0-.16-.16,0A.5.5,0,0,1,51,35.7a.49.49,0,0,1,.38-.59l.32-.07.57-.17a.49.49,0,0,1,.63.59l-.19.91A.49.49,0,0,1,52.2,36.79Z"/><path d="M53.3,37.83h-.08a.51.51,0,0,1-.42-.58l0-.16-.17,0a.51.51,0,0,1-.59-.39.49.49,0,0,1,.39-.59l.32-.07.57-.17a.49.49,0,0,1,.49.11.51.51,0,0,1,.14.48l-.19.91A.49.49,0,0,1,53.3,37.83Z"/><path d="M54.4,38.87h-.08a.5.5,0,0,1-.42-.57l0-.17-.17,0a.5.5,0,0,1-.59-.39.49.49,0,0,1,.38-.59l.33-.07.57-.17a.49.49,0,0,1,.49.11.5.5,0,0,1,.14.48l-.19.91A.49.49,0,0,1,54.4,38.87Z"/><path d="M55.49,39.92a.48.48,0,0,1-.34-.14l-.74-.7a.52.52,0,0,1-.14-.5.5.5,0,0,1,.38-.35l.9-.25a.5.5,0,0,1,.48.12.51.51,0,0,1,.15.48l-.2.91a.47.47,0,0,1-.33.4A.45.45,0,0,1,55.49,39.92Z"/><path d="M56.59,41h-.08a.51.51,0,0,1-.42-.57l0-.17-.16,0a.51.51,0,0,1-.6-.39.49.49,0,0,1,.38-.59l.91-.24a.5.5,0,0,1,.48.11.49.49,0,0,1,.14.48l-.19.91A.5.5,0,0,1,56.59,41Z"/><path d="M57.69,42h-.08a.5.5,0,0,1-.42-.57l0-.17-.17,0a.5.5,0,0,1-.21-1l.33-.07.57-.17a.49.49,0,0,1,.49.11.5.5,0,0,1,.14.48l-.19.91A.5.5,0,0,1,57.69,42Z"/><path d="M58.78,43H58.7a.49.49,0,0,1-.41-.57l0-.17-.16,0a.5.5,0,1,1-.21-1l.33-.07.57-.18a.52.52,0,0,1,.49.12.5.5,0,0,1,.14.48l-.2.92A.5.5,0,0,1,58.78,43Z"/><path d="M59.88,44.08H59.8a.51.51,0,0,1-.42-.57l0-.17-.17,0a.5.5,0,1,1-.2-1l.33-.07.57-.17a.51.51,0,0,1,.63.6l-.2.92A.5.5,0,0,1,59.88,44.08Z"/><path d="M61,45.12H60.9a.5.5,0,0,1-.42-.57l0-.17-.18,0a.5.5,0,0,1-.2-1l.33-.07.57-.17a.51.51,0,0,1,.49.12.5.5,0,0,1,.14.48l-.19.91A.5.5,0,0,1,61,45.12Z"/><path d="M62.07,46.16H62a.5.5,0,0,1-.41-.57l0-.17-.17,0a.5.5,0,0,1-.6-.38.49.49,0,0,1,.39-.59l.9-.25a.5.5,0,0,1,.63.6l-.19.92A.51.51,0,0,1,62.07,46.16Z"/><path d="M63.17,47.2h-.08a.49.49,0,0,1-.41-.57l0-.18-.17,0a.5.5,0,1,1-.21-1l.91-.25a.51.51,0,0,1,.49.12.5.5,0,0,1,.14.48l-.2.91A.5.5,0,0,1,63.17,47.2Z"/><path d="M64.27,48.24h-.08a.5.5,0,0,1-.42-.57l0-.18-.18,0a.5.5,0,0,1-.59-.39.51.51,0,0,1,.39-.59l.34-.07.56-.17a.49.49,0,0,1,.49.12.48.48,0,0,1,.14.48l-.19.92A.49.49,0,0,1,64.27,48.24Z"/><path d="M65.37,49.28h-.08a.5.5,0,0,1-.42-.57l0-.18-.18,0a.5.5,0,1,1-.2-1l.34-.07.56-.17a.49.49,0,0,1,.49.12.5.5,0,0,1,.14.48l-.19.92A.5.5,0,0,1,65.37,49.28Z"/><path d="M66.46,50.32h-.08a.5.5,0,0,1-.41-.58l0-.18-.18,0a.51.51,0,0,1-.59-.39.51.51,0,0,1,.39-.59l.34-.07.57-.17a.48.48,0,0,1,.48.12.49.49,0,0,1,.15.47l-.2.93A.49.49,0,0,1,66.46,50.32Z"/><path d="M67.56,51.36h-.08a.5.5,0,0,1-.42-.57l0-.18-.18,0a.5.5,0,0,1-.59-.38.5.5,0,0,1,.38-.6l.92-.24a.5.5,0,0,1,.48.11.52.52,0,0,1,.15.48l-.2.93A.5.5,0,0,1,67.56,51.36Z"/></svg>